HIERARCHY
ROOT Hips
{
	OFFSET 0.000000 0.000000 0.000000
	CHANNELS 6 Xposition Yposition Zposition Zrotation Yrotation Xrotation 
	JOINT LHipJoint
	{
		OFFSET 0.000000 0.000000 0.000000
		CHANNELS 3 Zrotation Yrotation Xrotation
		JOINT LeftUpLeg
		{
			OFFSET 1.363060 -1.794630 0.839290
			CHANNELS 3 Zrotation Yrotation Xrotation
			JOINT LeftLeg
			{
				OFFSET 2.448110 -6.726130 0.000000
				CHANNELS 3 Zrotation Yrotation Xrotation
				JOINT LeftFoot
				{
					OFFSET 2.562200 -7.039590 0.000000
					CHANNELS 3 Zrotation Yrotation Xrotation
					JOINT LeftToeBase
					{
						OFFSET 0.157640 -0.433110 2.322550
						CHANNELS 3 Zrotation Yrotation Xrotation
						End Site
						{
							OFFSET 0.000000 0.000000 0.000000
						}
					}
				}
			}
		}
	}
	JOINT RHipJoint
	{
		OFFSET 0.000000 0.000000 0.000000
		CHANNELS 3 Zrotation Yrotation Xrotation
		JOINT RightUpLeg
		{
			OFFSET -1.305520 -1.794630 0.839290
			CHANNELS 3 Zrotation Yrotation Xrotation
			JOINT RightLeg
			{
				OFFSET -2.542530 -6.985550 0.000000
				CHANNELS 3 Zrotation Yrotation Xrotation
				JOINT RightFoot
				{
					OFFSET -2.568260 -7.056230 0.000000
					CHANNELS 3 Zrotation Yrotation Xrotation
					JOINT RightToeBase
					{
						OFFSET -0.164730 -0.452590 2.363150
						CHANNELS 3 Zrotation Yrotation Xrotation
						End Site
						{
							OFFSET 0.000000 0.000000 0.000000
						}
					}
				}
			}
		}
	}
}
MOTION
Frames: 22
Frame Time: 0.008333
1.366312 12.404307 2.131601 -174.082169 -88.928519 -121.755842 -9.009062 -4.022997 6.421764 8.973432 -21.557164 -125.462860 3.784926 6.755020 97.168515 0.958155 -2.940039 -31.684479 0.082800 -0.000000 -29.588799 5.939952 3.096207 4.827764 2.089832 20.265093 -120.910132 -3.056255 -8.265254 96.656843 -3.163934 -2.456799 -36.863234 2.547600 -0.000001 -45.749599
1.216806 12.292579 2.135806 -179.234886 -88.865952 -116.564737 -9.078660 -4.373727 6.590152 9.504876 -21.939863 -125.499172 4.040243 6.752534 98.841938 1.298073 -1.634864 -33.254693 -0.360900 -0.000001 -28.632500 5.898104 2.978991 4.900119 2.166439 20.496803 -121.003978 -3.285567 -8.296664 98.219024 -3.284287 -2.663771 -37.953192 2.742900 -0.000001 -46.257400
1.067147 12.193665 2.138240 176.213723 -88.847745 -112.021454 -9.110638 -4.673178 6.758045 9.919352 -22.374702 -125.390292 4.262042 6.728923 100.316533 1.649137 -0.294872 -34.787059 -0.878300 0.000000 -27.929299 5.908261 2.877366 4.999301 2.227279 20.694225 -120.959504 -3.497767 -8.312822 99.614332 -3.415512 -2.939185 -39.007459 2.965400 0.000000 -46.717100
0.917622 12.108836 2.138765 172.569726 -88.847502 -108.436668 -9.118293 -4.901558 6.922638 10.194597 -22.837405 -125.129596 4.444260 6.688603 101.575157 1.997764 1.016624 -36.265488 -1.443900 0.000000 -27.447800 5.959693 2.805722 5.117278 2.287408 20.857993 -120.759512 -3.686198 -8.315172 100.838720 -3.553854 -3.262150 -40.031926 3.210801 0.000000 -47.073700
0.768840 12.038960 2.136741 170.730281 -88.819953 -106.727353 -9.116728 -5.024120 7.075086 10.283929 -23.317020 -124.691450 4.583153 6.635277 102.617076 2.331239 2.240780 -37.684091 -2.028300 0.000000 -27.121700 6.040038 2.798385 5.238941 2.357804 20.972651 -120.371640 -3.845426 -8.307236 101.903755 -3.693715 -3.601508 -41.041376 3.470700 0.000000 -47.266600
0.620626 11.985563 2.133426 169.730326 -88.781006 -105.914160 -9.122389 -5.078384 7.218797 10.210777 -23.774870 -124.077827 4.674041 6.578734 103.431902 2.634834 3.314569 -39.023445 -2.595300 -0.000000 -26.905600 6.135548 2.808178 5.366904 2.458883 21.052472 -119.813729 -3.971305 -8.285604 102.786352 -3.829149 -3.936382 -41.999740 3.731900 -0.000000 -47.353100
0.473377 11.949078 2.128502 170.245038 -88.706870 -106.689833 -9.141122 -5.043515 7.345545 9.946103 -24.199595 -123.262251 4.717107 6.521306 104.034747 2.898146 4.194585 -40.274329 -3.112900 0.000001 -26.741700 6.242964 2.856905 5.488101 2.604664 21.081943 -119.061303 -4.061141 -8.254702 103.497701 -3.952674 -4.234670 -42.903023 3.979200 0.000000 -47.342400
0.327093 11.930134 2.122623 172.174781 -88.611863 -108.963253 -9.176608 -4.928960 7.452834 9.504173 -24.566490 -122.229522 4.714277 6.465498 104.440328 3.111168 4.845582 -41.417785 -3.548900 -0.000000 -26.614000 6.360333 2.934878 5.593858 2.821818 21.060929 -118.098012 -4.113340 -8.215599 104.035852 -4.058821 -4.479627 -43.728584 4.200000 0.000001 -47.296700
0.181725 11.928553 2.115488 175.802195 -88.485018 -113.009013 -9.215010 -4.725471 7.539817 8.885937 -24.859086 -120.988218 4.668869 6.410656 104.662467 3.271292 5.262520 -42.428368 -3.883400 -0.000000 -26.524400 6.501987 3.049345 5.688918 3.095076 20.987123 -116.946179 -4.128853 -8.172150 104.397626 -4.137686 -4.644481 -44.435372 4.372600 0.000000 -47.329900
0.037031 11.944153 2.107497 -178.816710 -88.347039 -118.877981 -9.237548 -4.439454 7.606727 8.128580 -25.058256 -119.553038 4.586435 6.352648 104.718281 3.376905 5.451765 -43.277385 -4.101900 0.000000 -26.509799 6.684285 3.196551 5.774198 3.427090 20.865255 -115.617848 -4.109688 -8.127568 104.578033 -4.184557 -4.724698 -44.990051 4.486500 0.000000 -47.539301
-0.107393 11.976530 2.098957 -171.768708 -88.234294 -126.475185 -9.217290 -4.090221 7.655872 7.282374 -25.157978 -117.941810 4.472298 6.283777 104.622808 3.429471 5.435780 -43.935035 -4.200500 -0.000001 -26.625500 6.930830 3.359867 5.855652 3.818640 20.696234 -114.130516 -4.059797 -8.085648 104.569555 -4.197273 -4.728194 -45.363342 4.537800 0.000000 -48.007500
-0.252231 12.024992 2.090120 -163.348074 -88.197991 -135.491418 -9.130848 -3.719925 7.689687 6.406083 -25.174662 -116.179240 4.330787 6.195467 104.385511 3.433313 5.250605 -44.374853 -4.186700 -0.000000 -26.931400 7.259028 3.501925 5.940592 4.261447 20.469219 -112.519633 -3.985304 -8.049835 104.366206 -4.177203 -4.674314 -45.537295 4.531201 -0.000000 -48.785600
-0.398182 12.088782 2.081247 -154.343566 -88.286080 -145.125058 -8.989620 -3.394180 7.715330 5.551455 -25.144935 -114.288765 4.166274 6.086038 104.006385 3.394170 4.940507 -44.577319 -4.077200 0.000000 -27.485499 7.651007 3.561595 6.035334 4.735533 20.165152 -110.822874 -3.892325 -8.014864 103.966642 -4.129813 -4.592644 -45.507577 4.479500 0.000000 -49.884900
-0.546160 12.166999 2.072351 -145.555762 -88.496660 -154.558458 -8.842447 -3.156849 7.743562 4.747481 -25.095145 -112.302207 3.985091 5.962636 103.474800 3.319469 4.555274 -44.536160 -3.896200 -0.000001 -28.328600 8.050889 3.499833 6.141678 5.201782 19.784885 -109.072687 -3.783160 -7.965093 103.374329 -4.063415 -4.514302 -45.283507 4.400000 0.000000 -51.272600
-0.696981 12.258773 2.063117 -136.952607 -88.796879 -163.812237 -8.725391 -3.005870 7.783329 4.004682 -25.035739 -110.250589 3.793690 5.829411 102.781451 3.218950 4.146446 -44.262347 -3.673000 -0.000000 -29.469200 8.416047 3.324286 6.259947 5.619639 19.350557 -107.281287 -3.657355 -7.887623 102.592697 -3.987567 -4.467071 -44.892307 4.311400 -0.000000 -52.869300
-0.852087 12.363823 2.054453 -130.319898 -89.060365 -171.077986 -8.701708 -2.900985 7.848534 3.349087 -24.908248 -108.183792 3.601264 5.700643 101.907342 3.099761 3.750788 -43.781032 -3.430200 -0.000000 -30.898700 8.676552 3.076969 6.390763 5.968411 18.958908 -105.435995 -3.506970 -7.756110 101.609302 -3.914473 -4.481917 -44.354871 4.234400 -0.000001 -54.591600
-1.011559 12.480689 2.043802 -121.676270 -89.418816 179.632950 -8.687522 -2.844119 7.924744 2.732167 -24.819566 -106.043575 3.398496 5.549386 100.863607 2.977514 3.406796 -43.141462 -3.199000 0.000000 -32.517300 8.915986 2.761931 6.530190 6.240473 18.518410 -103.517535 -3.340334 -7.601475 100.442902 -3.851420 -4.558866 -43.767991 4.178900 0.000000 -56.234300
-1.176807 12.609642 2.032229 -113.048363 -89.759964 170.355208 -8.734692 -2.795120 8.018160 2.157517 -24.708157 -103.842897 3.188464 5.390944 99.627407 2.857877 3.123708 -42.395308 -2.989499 0.000000 -34.236900 9.079010 2.416985 6.674321 6.439448 18.110472 -101.489337 -3.148300 -7.402443 99.076508 -3.807811 -4.706740 -43.166366 4.155800 0.000000 -57.692000
-1.348750 12.750748 2.019499 75.764079 -89.925399 -19.128164 -8.828980 -2.727142 8.121012 1.593875 -24.572429 -101.540179 2.965782 5.222548 98.186191 2.748205 2.903580 -41.601046 -2.810100 0.000000 -35.925900 9.180255 2.066179 6.817525 6.579330 17.736377 -99.306083 -2.928623 -7.162698 97.501036 -3.786924 -4.913461 -42.598882 4.165800 0.000000 -58.871400
-1.528276 12.904363 2.005793 84.147894 -89.663382 -28.227153 -8.952907 -2.610247 8.222129 1.014402 -24.392089 -99.085762 2.725289 5.042157 96.527743 2.652245 2.734016 -40.812675 -2.660700 0.000000 -37.461500 9.238536 1.735037 6.951278 6.692378 17.398794 -96.913063 -2.677966 -6.887565 95.702012 -3.788093 -5.155565 -42.101043 4.204000 -0.000000 -59.687600
-1.716139 13.071118 1.991176 91.684261 -89.453508 -36.553174 -9.083274 -2.429841 8.307701 0.380997 -24.159753 -96.411530 2.460634 4.845817 94.635826 2.570741 2.595142 -40.065697 -2.536100 0.000000 -38.752100 9.280450 1.432057 7.065527 6.808647 17.070691 -94.257902 -2.395741 -6.585644 93.664611 -3.804343 -5.399054 -41.680863 4.257000 0.000001 -60.142200
-1.913069 13.251819 1.976064 97.602460 -89.302140 -43.366312 -9.201591 -2.181334 8.363978 -0.332229 -23.856481 -93.452802 2.167637 4.630758 92.492769 2.499664 2.457474 -39.369628 -2.424400 -0.000000 -39.765100 9.328205 1.155400 7.148549 6.966060 16.720471 -91.292104 -2.082085 -6.265028 91.369080 -3.824490 -5.606149 -41.313915 4.305600 -0.000000 -60.287799
